# xmcd
#
# Track frame offsets:
#	150
#	14560
#	25515
#	35274
#	49008
#	61506
#	70928
#	84851
#	97453
#	109456
#	124545
#	138828
#	151894
#	165287
#
# Disc length: 2344 seconds
#
# Revision: 0
# Processed by: cddbd v1.5.1PL0 Copyright (c) Steve Scherf et al.
# Submitted via: dBpowerAMP V4.0
#
DISCID=a609260e
DTITLE=Chet Atkins - Solo Sessions - CD 1 of 2
DYEAR=2003
DGENRE=Country
TTITLE0=Ol' Man River
TTITLE1=La Vie En Rose
TTITLE2=In The Good Old Summertime
TTITLE3=Sukiyaki
TTITLE4=Cascade
TTITLE5=America The Beautiful
TTITLE6=I Only Have Eyes For You
TTITLE7=I Can't Help It - If I Should Lose You
TTITLE8=Hi Lilli Hi Lo
TTITLE9=Danny Boy
TTITLE10=Bye Bye Blackbird
TTITLE11=Arkansas Traveler
TTITLE12=Shadow Walz
TTITLE13=In The Garden
EXTD=Posthumous release of his privately recorded solo sessions
EXTT0=
EXTT1=
EXTT2=
EXTT3=
EXTT4=
EXTT5=
EXTT6=
EXTT7=
EXTT8=
EXTT9=
EXTT10=
EXTT11=
EXTT12=
EXTT13=
PLAYORDER=
